<svg width="202" height="202" viewBox="0 0 202 202" fill="none" xmlns="http://www.w3.org/2000/svg">
<circle opacity="0.202683" r="101" transform="matrix(-1 0 0 1 101 101)" fill="url(#paint0_linear_15:134)"/>
<path d="M164.845 138.136C164.845 138.136 187.439 79.171 175.733 70.1786C164.028 61.1863 114.935 64.8175 112.246 68.0301C109.556 71.2426 93.7202 142.221 93.7202 142.221L164.845 138.136Z" fill="#231F20"/>
<path fill-rule="evenodd" clip-rule="evenodd" d="M93.4251 142.461C93.492 142.534 93.5865 142.577 93.6858 142.578L93.7064 142.591L164.865 138.473C165.001 138.467 165.12 138.38 165.167 138.253L165.171 138.244C165.34 137.801 170.939 123.153 175.013 107.617C180.605 86.3924 180.921 73.7344 175.946 69.9178C168.797 64.4331 148.837 64.0968 140.604 64.2066C126.579 64.3919 113.474 66.0463 111.985 67.8242C109.268 71.0642 94.0015 139.262 93.3565 142.166C93.3301 142.269 93.3557 142.379 93.4251 142.461ZM140.617 64.8725H143.197C159.15 64.8725 170.862 66.8837 175.507 70.4464C186.54 78.9102 166.032 133.956 164.584 137.793L94.0975 141.857C99.614 117.214 110.427 70.7278 112.486 68.2497C113.687 66.8425 126.208 65.0647 140.617 64.8725Z" fill="#231F20"/>
<path d="M73.1019 87.1888L62.9197 121.38C62.9197 121.38 83.9222 124.092 83.9222 123.316C83.9222 122.541 88.0389 85.6924 88.0389 85.6924L73.1019 87.1888Z" fill="white"/>
<path fill-rule="evenodd" clip-rule="evenodd" d="M62.8786 121.703C69.2527 122.541 79.3183 123.762 82.8656 123.762C83.294 123.802 83.7257 123.743 84.128 123.591C84.2099 123.514 84.259 123.408 84.2653 123.296C84.2653 122.602 86.9618 98.4053 88.3821 85.7061C88.3966 85.6044 88.3608 85.502 88.286 85.4315C88.2151 85.357 88.114 85.3191 88.0115 85.3286L73.0676 86.825C72.928 86.8393 72.8111 86.9372 72.7726 87.0721L62.5904 121.264C62.5638 121.361 62.5801 121.464 62.6353 121.549C62.6904 121.633 62.779 121.689 62.8786 121.703ZM83.5654 123.097C81.9736 123.323 70.6387 122.026 63.3383 121.092L73.3421 87.5115L87.6273 86.0768C87.5999 86.323 87.5622 86.661 87.5155 87.0797C86.7798 93.678 83.8106 120.308 83.5654 123.097Z" fill="#231F20"/>
<path d="M53.801 78.6975C53.8902 78.7936 57.5061 77.8257 59.3724 80.0704C61.2387 82.3151 58.8166 84.3195 52.9228 83.1594C47.0289 81.9993 53.801 78.6975 53.801 78.6975Z" fill="white"/>
<path fill-rule="evenodd" clip-rule="evenodd" d="M52.8542 83.5025C53.9 83.7155 54.9637 83.8281 56.031 83.8388C58.055 83.8388 59.5302 83.3171 60.0997 82.4179C60.5388 81.6628 60.381 80.7636 59.64 79.8849C57.991 77.908 55.097 78.2599 54.1163 78.3792C54.1094 78.38 54.1027 78.3808 54.0961 78.3816H53.8696C53.7984 78.3576 53.7213 78.3576 53.6501 78.3816C53.0326 78.6905 49.9724 80.2625 50.1714 81.8138C50.2743 82.617 51.1526 83.1661 52.8542 83.5025ZM50.8712 81.6903C50.7752 80.9283 52.5385 79.7202 53.8765 79.0337C53.9588 79.0337 54.0549 79.0337 54.1853 79.0063C55.139 78.8827 57.6845 78.567 59.098 80.2556C59.5806 80.6858 59.7376 81.3747 59.4891 81.9717C58.9813 82.8298 56.9778 83.5574 52.9914 82.7748C51.228 82.4248 50.8712 81.9442 50.8712 81.6903Z" fill="#231F20"/>
<path d="M44.7372 71.5242C44.7372 71.5242 43.9962 70.673 44.4628 70.0758C44.6757 69.8298 44.9942 69.7016 45.3181 69.7316C45.642 69.7615 45.9315 69.9459 46.0958 70.2268C46.0958 70.2268 44.9294 70.6455 44.7372 71.5242Z" fill="white"/>
<path fill-rule="evenodd" clip-rule="evenodd" d="M44.4696 71.7577C44.5381 71.833 44.6355 71.8754 44.7372 71.8744L44.8264 71.8675C44.955 71.8338 45.0534 71.73 45.0803 71.5998C45.2038 71.0438 45.938 70.6594 46.2124 70.5633C46.3206 70.5242 46.4027 70.4343 46.432 70.323C46.4656 70.2108 46.4398 70.0892 46.3634 70.0004C46.0862 69.6154 45.6437 69.3838 45.1695 69.3757C44.7844 69.3763 44.4215 69.5565 44.1883 69.8631C43.6737 70.5084 44.1266 71.3595 44.4696 71.7577ZM44.751 70.2956C44.8559 70.1634 45.0145 70.0853 45.1832 70.0828L45.1901 70.1102C45.2926 70.0955 45.3971 70.1098 45.492 70.1514C45.2087 70.3152 44.9576 70.5292 44.751 70.7829C44.6716 70.6302 44.6716 70.4483 44.751 70.2956Z" fill="#231F20"/>
<path d="M46.3565 70.1924C45.5171 70.2606 44.8293 70.8867 44.6824 71.7163L59.3999 90.8748C59.5868 88.9853 61.0406 87.4685 62.9197 87.2024L46.3565 70.1924Z" fill="white"/>
<path fill-rule="evenodd" clip-rule="evenodd" d="M59.1186 91.0877C59.1841 91.1732 59.2853 91.2239 59.3931 91.2249L59.496 91.2112C59.6369 91.1715 59.7381 91.0483 59.7499 90.9023C59.9241 89.1728 61.2601 87.788 62.9815 87.5525C63.1108 87.5302 63.2167 87.4374 63.256 87.3122C63.2996 87.1873 63.2676 87.0484 63.1737 86.9553L46.6104 69.9453C46.544 69.876 46.4525 69.8364 46.3566 69.8354C45.3614 69.9134 44.5384 70.6416 44.3394 71.6202C44.311 71.7272 44.3338 71.8413 44.4011 71.9291L59.1186 91.0877ZM59.2147 90.0511L45.0735 71.6477C45.2224 71.0975 45.6682 70.678 46.2262 70.5631L62.2268 86.9965C60.7602 87.4215 59.6196 88.5782 59.2147 90.0511Z" fill="#231F20"/>
<path d="M59.3999 90.875L64.4224 93.4835L65.0468 92.9L62.9198 87.2026C62.9198 87.2026 59.0088 86.8113 59.3999 90.875Z" fill="white"/>
<path fill-rule="evenodd" clip-rule="evenodd" d="M64.2576 93.7923C64.308 93.8202 64.3648 93.8344 64.4223 93.8335C64.5105 93.8339 64.5959 93.8022 64.6625 93.7442L65.2868 93.1608C65.3928 93.0632 65.4282 92.9107 65.376 92.7764L63.2559 87.0789C63.2088 86.9493 63.0912 86.8584 62.954 86.8455C61.8547 86.7539 60.7646 87.1076 59.9282 87.8271C59.176 88.6614 58.8495 89.7957 59.043 90.9024C59.054 91.0232 59.1267 91.1296 59.2352 91.1838L64.2576 93.7923ZM64.3606 93.0509L59.736 90.6484C59.6136 89.8118 59.8644 88.9635 60.4222 88.3282C61.0514 87.8007 61.8521 87.5223 62.6727 87.5457L64.635 92.8038L64.3606 93.0509Z" fill="#231F20"/>
<path d="M64.4224 93.4834L65.3829 94.513L65.8358 93.9982L65.0467 92.8999L64.4224 93.4834Z" fill="white"/>
<path fill-rule="evenodd" clip-rule="evenodd" d="M65.1291 94.7533C65.1922 94.8279 65.2852 94.8707 65.3829 94.87H65.4104C65.5114 94.8701 65.6072 94.8247 65.6711 94.7464L66.124 94.2316C66.2272 94.1034 66.2272 93.9205 66.124 93.7923L65.3349 92.694C65.2754 92.6119 65.1838 92.559 65.083 92.5485C64.9822 92.5381 64.8817 92.571 64.8066 92.639L64.1822 93.2225C64.1127 93.2866 64.0709 93.3752 64.0656 93.4696C64.065 93.5633 64.0992 93.6538 64.1616 93.7236L65.1291 94.7533ZM65.3761 93.9845L64.9232 93.4971L64.985 93.4422L65.3761 93.9845Z" fill="#231F20"/>
<path d="M54.7342 92.3782C55.5438 90.7376 57.5747 87.2574 58.0413 85.7472C59.3312 81.6285 51.7769 77.7708 49.3343 77.7708C46.8917 77.7708 41.7869 86.3101 41.7869 90.8749C41.7869 95.4397 58.7 130.393 58.7 130.393L74.927 122.966L54.7342 92.3782Z" fill="white"/>
<path fill-rule="evenodd" clip-rule="evenodd" d="M58.405 130.551C58.4631 130.673 58.5859 130.75 58.7206 130.75C58.78 130.759 58.8406 130.747 58.8921 130.716L75.126 123.275C75.2184 123.232 75.2883 123.153 75.3181 123.055C75.3443 122.954 75.3268 122.847 75.2701 122.76L55.1733 92.3508C55.3247 92.0678 55.4969 91.7408 55.686 91.3819C55.8224 91.1228 55.9677 90.847 56.1202 90.5592C56.9919 89.0467 57.7577 87.4756 58.4119 85.857C58.7756 84.5365 58.4593 83.1214 57.5679 82.0816C55.585 79.4182 51.2143 77.4138 49.3343 77.4138C46.6104 77.4138 41.4507 86.2895 41.4507 90.8749C41.4507 95.3453 56.9128 127.452 58.3244 130.384C58.3607 130.459 58.3878 130.515 58.405 130.551ZM42.1643 90.8749C42.1643 86.3581 47.1867 78.1209 49.3343 78.1209C50.9124 78.1209 55.0773 79.9262 56.9916 82.5278C57.7444 83.388 58.0197 84.5668 57.7257 85.6717C57.0848 87.2469 56.3375 88.7766 55.4889 90.2503C55.0773 91.0191 54.6999 91.7261 54.4392 92.2478C54.3781 92.359 54.3781 92.4936 54.4392 92.6048L74.4262 122.808L58.8853 129.933L58.839 129.837C56.9526 125.9 42.1643 95.0397 42.1643 90.8749Z" fill="#231F20"/>
<path d="M141.07 99.2975L161.071 94.1972C160.385 93.2293 152.316 67.6045 143.808 63.4104C136.363 58.468 118.709 55.1731 103.113 56.292C103.113 56.292 98.9966 56.141 91.7785 59.0034C74.1998 65.9914 70.8103 90.3257 70.8103 90.3257L84.5329 95.069C84.5329 95.069 81.9119 126.542 79.435 142.996C79.435 142.996 109.776 148.934 153.949 141.623C153.983 141.61 141.152 103.952 141.07 99.2975Z" fill="#E7816B"/>
<path d="M139.423 64.1174C136.775 66.8631 134.71 70.158 131.787 72.7459C125.488 78.3198 117.248 82.7336 108.609 82.1982C98.427 81.5667 89.624 74.6062 87.4146 64.4674C86.0424 58.111 87.4695 52.2076 92.3822 47.7183C95.7786 44.6156 100.129 42.721 104.575 41.5403C116.383 38.3758 129.632 40.0576 139.712 46.9907C141.358 48.0048 142.749 49.3862 143.773 51.0269C146.292 55.5918 143.396 60.287 140.13 63.4241C139.911 63.6369 139.677 63.8771 139.423 64.1174Z" fill="#E7816B"/>
<path d="M104.684 71.3114C104.582 71.3114 102.688 73.6178 102.592 73.6521C103.669 77.7159 104.808 83.0083 109.405 83.53C118.73 84.594 120.143 72.1557 121.9 66.2866C115.443 68.0988 110.887 68.8265 104.684 71.3114Z" fill="#231F20"/>
<path fill-rule="evenodd" clip-rule="evenodd" d="M109.371 83.8732C109.744 83.9159 110.12 83.9388 110.496 83.9418C117.81 83.935 119.985 75.2309 121.406 69.355C121.433 69.2475 121.459 69.1406 121.486 69.0345C121.73 68.0623 121.96 67.148 122.195 66.3621C122.227 66.2433 122.196 66.1161 122.112 66.0257C122.025 65.9371 121.896 65.903 121.776 65.9365C119.774 66.4989 117.971 66.9516 116.223 67.3906L116.218 67.3917C112.25 68.304 108.352 69.4992 104.554 70.9681C104.444 71.0161 104.431 71.023 103.367 72.2449C103.004 72.6705 102.503 73.2539 102.393 73.3569C102.276 73.4381 102.222 73.5827 102.256 73.7207L102.434 74.4072L102.445 74.4494C103.493 78.4168 104.797 83.3533 109.371 83.8732ZM103.072 74.2356L102.949 73.7619H102.969C103.12 73.5972 103.388 73.2951 103.868 72.6773C104.225 72.2586 104.705 71.7094 104.842 71.5722C108.603 70.1161 112.465 68.9369 116.397 68.0439C116.701 67.9661 117.009 67.8879 117.32 67.8087C118.605 67.4821 119.955 67.1387 121.385 66.7465C121.179 67.4878 120.973 68.3116 120.761 69.1696L120.756 69.1871C119.192 75.4596 117.055 84.0302 109.426 83.1593C105.311 82.7278 104.127 78.237 103.079 74.2622L103.072 74.2356Z" fill="#231F20"/>
<path d="M113.714 23.4321C112.342 23.3772 111.464 23.9744 110.283 24.4C107.985 25.21 106.914 23.2879 104.938 22.2651C98.5237 18.9287 90.6472 20.5799 86.111 26.2122C84.7419 27.8344 83.8552 29.8083 83.5517 31.9096C83.2635 34.2847 83.9291 36.7147 83.5174 39.0623C83.0058 41.8033 81.1177 44.0867 78.5223 45.103C80.719 45.2726 82.9284 45.0637 85.0543 44.4852C83.818 45.9553 82.0067 46.8188 80.0867 46.8534C82.2748 48.5366 84.9634 49.4381 87.7234 49.4138L82.8861 50.5465C87.0029 53.1893 92.0185 53.9787 96.8695 53.759C106.53 53.2579 122.709 49.304 122.428 36.7833C122.27 31.9851 119.635 23.7066 113.714 23.4321Z" fill="white"/>
<path fill-rule="evenodd" clip-rule="evenodd" d="M82.6735 50.8554C86.7766 53.4777 91.5109 54.1641 95.2091 54.1641C95.7855 54.1641 96.3412 54.1504 96.9176 54.1092C99.8336 53.9582 107.299 53.2305 113.556 50.0935C119.814 46.9565 122.922 42.474 122.798 36.7834C122.702 31.4155 119.725 23.3566 113.783 23.0958C112.844 23.0898 111.917 23.3087 111.079 23.7342C111.037 23.7519 110.994 23.7698 110.95 23.7878C110.71 23.8881 110.463 23.9911 110.201 24.0843C108.76 24.5854 107.882 23.9195 106.77 23.0752C106.25 22.6592 105.695 22.2894 105.11 21.97C98.5523 18.5539 90.4962 20.2399 85.8571 25.9994C84.4473 27.6732 83.5345 29.7089 83.2224 31.8754C83.1152 33.0169 83.1152 34.166 83.2224 35.3076C83.3601 36.5448 83.3463 37.7942 83.1812 39.0281C82.6902 41.6559 80.8723 43.8411 78.3783 44.801C78.2252 44.8553 78.1328 45.0113 78.1588 45.1717C78.1805 45.33 78.3085 45.4524 78.4675 45.4669C80.2906 45.6107 82.1248 45.4952 83.9154 45.1237C82.8216 46.0122 81.4613 46.5078 80.0525 46.5309C79.9048 46.5309 79.7737 46.6254 79.727 46.7656C79.6803 46.9057 79.7285 47.06 79.8466 47.1487C81.4943 48.4136 83.4256 49.2572 85.4729 49.6061L82.7833 50.2308C82.6518 50.2663 82.5512 50.3722 82.5225 50.5054C82.4994 50.6416 82.5585 50.7788 82.6735 50.8554ZM96.8284 53.4777C93.2674 53.6493 88.1831 53.306 83.7507 50.7319L87.7852 49.7228C87.9558 49.6821 88.0682 49.5193 88.0459 49.3453C88.028 49.1704 87.8785 49.0387 87.7028 49.0432C85.334 49.0665 83.0112 48.3882 81.0268 47.0938C82.6935 46.8278 84.2086 45.97 85.2945 44.6775C85.3805 44.5562 85.3805 44.3938 85.2945 44.2725C85.2124 44.1446 85.0561 44.086 84.9103 44.1283C83.2605 44.5817 81.5575 44.8126 79.8466 44.8148C81.9242 43.5771 83.3671 41.5031 83.8056 39.1242C83.9815 37.8361 84 36.5314 83.8605 35.2389C83.7576 34.1453 83.7576 33.0445 83.8605 31.9509C84.1648 29.9245 85.0272 28.0229 86.3512 26.4593C90.7823 20.9495 98.4862 19.3374 104.753 22.6084C105.302 22.9073 105.823 23.2541 106.311 23.6449C107.484 24.5373 108.596 25.3816 110.373 24.757C110.656 24.6603 110.924 24.5477 111.186 24.4378C111.221 24.4229 111.257 24.408 111.292 24.3932C112.039 24.0152 112.863 23.8155 113.7 23.8097C119.203 24.0774 121.941 31.7449 122.057 36.8521C122.174 42.2612 119.196 46.524 113.193 49.5306C106.983 52.6471 99.6827 53.3266 96.8284 53.4777Z" fill="#231F20"/>
<path d="M101.906 61.8316L102.592 73.6521C102.592 73.6521 107.992 79.8301 114.942 76.0341C121.893 72.238 121.625 66.218 121.625 66.218L117.062 44.0253C117.062 44.0253 110.757 42.5701 109.151 30.1455C103.772 34.4064 97.3436 37.136 90.5433 38.0464C90.5433 38.0464 90.6668 51.9469 93.1163 57.4727C95.5658 62.9986 101.906 61.8316 101.906 61.8316Z" fill="white"/>
<path fill-rule="evenodd" clip-rule="evenodd" d="M102.331 73.8786C102.372 73.9335 105.659 77.6059 110.379 77.6059C112.031 77.5885 113.65 77.1515 115.086 76.336C122.044 72.538 121.952 66.4577 121.948 66.159C121.948 66.1543 121.948 66.1511 121.948 66.1493L117.378 43.936C117.351 43.8058 117.253 43.7021 117.124 43.6683C115.864 43.2391 114.748 42.4693 113.899 41.4443C112.328 39.7282 110.283 36.3715 109.474 30.0837C109.455 29.9593 109.371 29.8545 109.254 29.8091C109.135 29.7629 109 29.7867 108.904 29.8709C103.565 34.0682 97.203 36.7648 90.4747 37.6826C90.3057 37.7094 90.1809 37.8546 90.1797 38.0258L90.1798 38.0389C90.1886 38.7749 90.3469 52.1344 92.7801 57.5893C94.9552 62.4974 100.115 62.3601 101.563 62.216L102.249 73.6726C102.251 73.7489 102.28 73.8218 102.331 73.8786ZM114.784 75.7114C108.52 79.1367 103.607 74.2355 102.921 73.4873L102.249 61.7766C102.241 61.6779 102.194 61.5865 102.118 61.5226C102.04 61.4645 101.94 61.4421 101.844 61.4609L101.843 61.461C101.588 61.5036 95.7355 62.4795 93.4251 57.2804C91.2363 52.3312 90.8933 40.3459 90.8933 38.2866C97.4321 37.3181 103.623 34.7217 108.897 30.7358C110.469 41.5815 115.628 43.8605 116.767 44.2381L121.289 66.2042C121.289 66.2048 121.289 66.2061 121.289 66.2081C121.292 66.3874 121.38 72.1 114.784 75.7114Z" fill="#231F20"/>
<path d="M114.489 50.2445C116.101 50.4874 117.744 50.0827 119.059 49.1187C120.865 47.6881 121.795 45.4201 121.515 43.1329C121.473 42.2923 121.238 41.4727 120.829 40.7373C120.424 39.993 119.715 39.4619 118.888 39.282C117.874 39.219 116.868 39.4863 116.019 40.044C114.688 40.7304 114.647 41.4923 113.92 42.6181C114.002 42.5151 114.064 42.2268 114.146 42.1239" fill="white"/>
<path d="M115.409 50.6633C115.083 50.662 114.757 50.6368 114.435 50.5878C114.246 50.5562 114.117 50.3788 114.146 50.1896C114.16 50.0999 114.209 50.0193 114.283 49.9663C114.356 49.9133 114.448 49.8924 114.537 49.9082C116.057 50.132 117.604 49.7445 118.839 48.8305C120.549 47.4696 121.426 45.3152 121.152 43.1467C121.124 42.3592 120.915 41.5886 120.541 40.8952C120.183 40.2452 119.563 39.7802 118.839 39.6184C117.989 39.4674 117.138 39.8587 116.191 40.3461C115.54 40.6627 115.031 41.2111 114.764 41.8837C114.62 42.1445 114.462 42.4397 114.249 42.7623C114.235 42.7902 114.216 42.8157 114.194 42.8378C114.08 42.9798 113.872 43.0042 113.728 42.8928C113.577 42.7862 113.54 42.5778 113.645 42.426C113.645 42.426 113.645 42.3367 113.693 42.2887C113.734 42.1644 113.791 42.0465 113.865 41.9386C113.901 41.897 113.945 41.8641 113.995 41.8425L114.126 41.5954C114.465 40.7991 115.078 40.1511 115.855 39.7694C116.664 39.3507 117.783 38.7741 118.929 38.9732C119.872 39.1604 120.684 39.7528 121.152 40.5932C121.572 41.3783 121.807 42.2496 121.838 43.1399C122.133 45.5435 121.149 47.9262 119.244 49.4208C118.13 50.2322 116.787 50.6674 115.409 50.6633Z" fill="#231F20"/>
<path d="M102.263 68.0507C105.006 67.8533 107.474 66.3114 108.856 63.932C111.278 59.8889 110.311 57.301 110.311 57.301C110.311 57.301 107.045 61.4677 101.906 61.8041L102.263 68.0507Z" fill="#231F20"/>
<path fill-rule="evenodd" clip-rule="evenodd" d="M101.926 68.0644C101.934 68.2448 102.082 68.3872 102.263 68.387L102.283 68.4214C105.135 68.2383 107.709 66.6447 109.144 64.1723C111.628 60.033 110.674 57.3559 110.633 57.2461C110.589 57.1308 110.487 57.0473 110.366 57.0264C110.243 57.0081 110.119 57.058 110.043 57.1569C110.043 57.1574 110.042 57.1585 110.04 57.1603C109.927 57.2992 106.742 61.2109 101.885 61.5226C101.794 61.5279 101.709 61.5693 101.648 61.6375C101.588 61.7058 101.557 61.7954 101.563 61.8864L101.926 68.0644ZM102.585 67.68L102.263 62.1404C105.274 61.7483 108.051 60.307 110.105 58.0698C110.229 59.0308 110.187 61.0353 108.547 63.781C107.27 65.934 105.069 67.3738 102.585 67.68Z" fill="#231F20"/>
<path d="M101 43.0437C101 43.0437 98.427 49.8257 99.5934 50.6357C100.76 51.4457 103.223 50.1552 103.223 50.1552" fill="white"/>
<path d="M100.609 51.2466C100.18 51.2663 99.7551 51.1511 99.3945 50.9171C98.1046 50.0248 100.081 44.5744 100.671 42.9201C100.738 42.7447 100.934 42.656 101.11 42.721C101.196 42.7533 101.265 42.8187 101.303 42.9025C101.34 42.9864 101.342 43.0817 101.309 43.1672C100.115 46.318 99.2505 49.963 99.7856 50.3474C100.602 50.9103 102.427 50.1826 103.058 49.8532C103.227 49.7668 103.434 49.8307 103.525 49.9973C103.61 50.1661 103.542 50.3716 103.374 50.4572C102.519 50.9152 101.577 51.1843 100.609 51.2466Z" fill="#231F20"/>
<ellipse cx="105.628" cy="41.533" rx="0.994933" ry="1.40714" transform="rotate(-17.91 105.628 41.533)" fill="#231F20"/>
<ellipse cx="96.4427" cy="43.7107" rx="0.994891" ry="1.4072" transform="rotate(-0.78 96.4427 43.7107)" fill="#231F20"/>
<path fill-rule="evenodd" clip-rule="evenodd" d="M99.964 58.8044C100.51 59.1742 101.158 59.3639 101.817 59.3467C102.237 59.345 102.655 59.2849 103.058 59.1682C104.703 58.6552 106.021 57.4152 106.633 55.8046C107.136 54.508 107.326 53.1111 107.189 51.7272C107.176 51.6288 107.124 51.5398 107.045 51.48C106.887 51.3634 106.791 51.2947 97.9125 53.2373C97.7491 53.2734 97.6341 53.4201 97.638 53.5874L97.638 53.5876C97.645 53.7405 97.8033 57.226 99.964 58.8044ZM100.355 58.2415C98.8045 57.1157 98.4339 54.6857 98.3516 53.8551V53.8483C101.178 53.2305 105.343 52.3381 106.523 52.1253C106.605 53.2938 106.427 54.4659 106.002 55.5575C105.458 56.9748 104.295 58.0648 102.846 58.5161C102.016 58.8013 101.103 58.7006 100.355 58.2415Z" fill="#231F20"/>
<path d="M106.318 55.6949C105 58.88 101.7 59.642 100.142 58.5368C100.492 57.3218 101.13 56.0587 102.317 55.5988C103.62 55.1543 105.038 55.1884 106.318 55.6949Z" fill="#231F20"/>
<path fill-rule="evenodd" clip-rule="evenodd" d="M99.964 58.8045C100.511 59.1711 101.158 59.3582 101.817 59.3399C102.236 59.3402 102.654 59.2825 103.058 59.1683C104.7 58.6549 106.017 57.4184 106.633 55.8116C106.667 55.7256 106.667 55.6299 106.633 55.5439C106.595 55.4578 106.523 55.391 106.434 55.3585C105.082 54.8339 103.588 54.8023 102.215 55.2693C101.11 55.688 100.307 56.7589 99.8405 58.4338C99.7984 58.5711 99.848 58.72 99.964 58.8045ZM102.846 58.5093C102.097 58.7584 101.281 58.7092 100.568 58.372C101 57.0678 101.618 56.2303 102.462 55.8871C103.562 55.5212 104.751 55.5212 105.851 55.8871C105.268 57.149 104.175 58.1027 102.846 58.5093Z" fill="#231F20"/>
<path fill-rule="evenodd" clip-rule="evenodd" d="M88.2105 46.9015C88.4169 47.847 89.2535 48.5212 90.2209 48.5215C90.3697 48.5135 90.5171 48.4882 90.66 48.446L98.3104 46.7711C99.3995 46.5154 100.085 45.4362 99.8542 44.3411L99.1681 41.0667C99.0515 40.5319 98.727 40.0656 98.2661 39.7706C97.8052 39.4757 97.2459 39.3764 96.7117 39.4948L89.0613 41.1766C87.9513 41.4195 87.2479 42.5164 87.4901 43.6272L88.2105 46.9015ZM96.8627 40.1606C96.9607 40.1505 97.0596 40.1505 97.1577 40.1606L97.1851 40.14C97.8167 40.1491 98.3605 40.5883 98.5025 41.204L99.1886 44.4784C99.3343 45.2038 98.8791 45.9141 98.1594 46.0846L90.5091 47.8007C89.784 47.9464 89.0739 47.491 88.9035 46.7711L88.1831 43.4487C88.0337 42.7188 88.4935 42.0029 89.2191 41.8356L96.8627 40.1606Z" fill="#231F20"/>
<path fill-rule="evenodd" clip-rule="evenodd" d="M102.743 45.2062C103.074 45.4203 103.46 45.5346 103.854 45.5356C104.016 45.535 104.176 45.5189 104.335 45.4876L111.978 43.8127C113.078 43.5541 113.763 42.4575 113.515 41.3552L112.829 38.0809C112.712 37.5461 112.388 37.0797 111.927 36.7848C111.466 36.4898 110.907 36.3906 110.373 36.509L102.729 38.1839C102.193 38.3011 101.727 38.6272 101.432 39.09C101.139 39.5503 101.04 40.1083 101.158 40.6413L101.844 43.9156C101.961 44.4479 102.284 44.9119 102.743 45.2062ZM110.496 37.1954C110.593 37.1738 110.692 37.1623 110.791 37.1611C111.435 37.1582 111.994 37.6035 112.136 38.2319L112.822 41.5062C112.899 41.8574 112.835 42.2246 112.644 42.529C112.448 42.8294 112.143 43.0413 111.793 43.1194L104.142 44.7943C103.417 44.94 102.707 44.4846 102.537 43.7646L101.816 40.4903C101.742 40.1383 101.808 39.771 102.002 39.4675C102.194 39.1639 102.501 38.951 102.853 38.8772L110.496 37.1954Z" fill="#231F20"/>
<path d="M98.8181 41.4993C98.7553 41.5006 98.6934 41.4839 98.6397 41.4512C98.4734 41.3528 98.4156 41.1398 98.5094 40.9707C98.8319 40.4147 99.8816 39.5429 101.604 40.2362C101.793 40.3082 101.889 40.5203 101.817 40.7098C101.745 40.8994 101.533 40.9947 101.343 40.9226C99.8062 40.3048 99.1886 41.2453 99.1269 41.3551C99.0542 41.4514 98.9386 41.5054 98.8181 41.4993Z" fill="#231F20"/>
<path d="M30.4657 132.878H171.534L194.17 174.236H7.8302L30.4657 132.878Z" fill="white"/>
<path fill-rule="evenodd" clip-rule="evenodd" d="M7.83031 174.579H194.17C194.292 174.581 194.407 174.519 194.472 174.415C194.53 174.308 194.53 174.178 194.472 174.071L171.829 132.713C171.77 132.602 171.654 132.533 171.528 132.535H30.4795C30.3534 132.533 30.2368 132.602 30.1776 132.713L7.53527 174.071C7.47669 174.178 7.47669 174.308 7.53527 174.415C7.59885 174.517 7.71022 174.579 7.83031 174.579ZM193.587 173.893H8.41352L30.6716 133.221H171.329L193.587 173.893Z" fill="#D1D3D4"/>
<path d="M32.6545 106.196L32.9564 104.892C33.6426 103.588 34.4042 102.709 36.1744 102.709H103.326C104.993 102.712 106.46 103.813 106.928 105.414L117.845 142.935C118.429 144.605 117.615 146.441 115.985 147.129L114.798 147.41L32.6545 106.196Z" fill="white"/>
<path fill-rule="evenodd" clip-rule="evenodd" d="M114.647 147.719C114.695 147.74 114.746 147.752 114.798 147.753L114.867 147.781L116.095 147.486C117.889 146.732 118.79 144.713 118.153 142.873L107.23 105.304C106.715 103.559 105.117 102.36 103.299 102.352H36.1469C34.1023 102.352 33.3132 103.471 32.6271 104.714C32.6241 104.743 32.6241 104.773 32.6271 104.803L32.3252 106.107C32.2863 106.261 32.3607 106.422 32.5036 106.492L114.647 147.719ZM114.867 147.046L33.0731 106.011L33.2789 105.016C34.0062 103.739 34.658 103.052 36.1744 103.052H103.347C104.86 103.06 106.19 104.058 106.619 105.51L117.536 143.031C117.927 144.39 117.584 146.154 115.93 146.799L114.867 147.046Z" fill="#231F20"/>
<path d="M114.798 147.41H46.2742C45.3182 147.4 44.482 146.764 44.2158 145.845L32.6819 106.196C32.5937 105.888 32.6552 105.556 32.848 105.3C33.0407 105.044 33.3425 104.893 33.6631 104.892H104.019L115.937 145.893C116.044 146.252 115.974 146.64 115.749 146.939C115.525 147.238 115.172 147.413 114.798 147.41Z" fill="#231F20"/>
<path fill-rule="evenodd" clip-rule="evenodd" d="M46.2741 147.753H114.798C115.279 147.753 115.732 147.526 116.02 147.142C116.309 146.757 116.4 146.259 116.266 145.797L104.341 104.796C104.301 104.652 104.169 104.553 104.019 104.556H33.6356C33.2097 104.56 32.8097 104.761 32.5531 105.101C32.2964 105.441 32.2122 105.882 32.3251 106.292L43.859 145.941C44.1766 147.012 45.1578 147.748 46.2741 147.753ZM33.0984 105.508C33.2258 105.339 33.424 105.239 33.6356 105.235H103.745L115.615 145.989C115.69 146.243 115.641 146.518 115.484 146.731C115.321 146.944 115.067 147.069 114.798 147.067H46.2741C45.4602 147.065 44.7438 146.529 44.5108 145.749L32.9838 106.1C32.9287 105.896 32.971 105.677 33.0984 105.508Z" fill="#231F20"/>
<path d="M103.305 130.517L99.1407 148.234C98.6868 150.187 96.9454 151.567 94.9415 151.563H51.5986C50.2806 151.562 49.0351 150.959 48.217 149.926C47.3988 148.892 47.0977 147.541 47.3995 146.257L51.0703 130.517H47.4818L43.9688 145.447C43.4317 147.776 43.9849 150.223 45.4716 152.094C46.9583 153.965 49.2164 155.056 51.6055 155.057H94.9758C98.5934 155.055 101.737 152.571 102.578 149.051L106.928 130.517L103.305 130.517Z" fill="white"/>
<path fill-rule="evenodd" clip-rule="evenodd" d="M51.5985 155.448H94.9415C98.7524 155.473 102.072 152.854 102.935 149.14L107.292 130.606C107.312 130.504 107.286 130.399 107.222 130.318C107.157 130.237 107.059 130.189 106.956 130.187H103.333C103.176 130.186 103.039 130.295 103.004 130.448L98.8387 148.165C98.4202 149.965 96.8156 151.237 94.9689 151.234H51.5985C50.3848 151.232 49.2381 150.676 48.4844 149.724C47.7308 148.772 47.4525 147.529 47.7288 146.346L51.427 130.606C51.4519 130.506 51.4291 130.399 51.3653 130.318C51.2999 130.237 51.2018 130.189 51.0977 130.187H47.4749C47.316 130.186 47.1768 130.294 47.1387 130.448L43.6326 145.385C43.0605 147.82 43.6319 150.383 45.1839 152.343C46.736 154.304 49.0986 155.448 51.5985 155.448ZM44.2844 145.543L47.715 130.874H50.6585L47.0632 146.188C46.736 147.575 47.0607 149.035 47.9446 150.152C48.8285 151.269 50.1745 151.92 51.5985 151.92H94.9552C97.1218 151.93 99.0058 150.436 99.4905 148.323L103.607 130.874H106.523L102.269 148.975C101.482 152.371 98.4534 154.772 94.9689 154.762H51.5985C49.3046 154.769 47.1339 153.724 45.7078 151.926C44.2816 150.129 43.7571 147.776 44.2844 145.543Z" fill="#231F20"/>
<path d="M159.198 94.3894C159.198 94.3894 165.332 121.641 160.309 128.602C155.287 135.562 120.212 134.464 120.212 134.464C120.212 134.464 114.524 141.294 109.584 140.841C104.643 140.388 107.525 131.038 113.337 127.146L112.534 123.899L143.458 118.937L139.341 99.3524" fill="white"/>
<path d="M110.036 141.205C109.867 141.205 109.696 141.205 109.522 141.205C108.207 141.139 107.102 140.194 106.832 138.905C106.057 135.864 108.541 130.064 112.911 127.016L112.17 124.003C112.146 123.912 112.161 123.814 112.211 123.735C112.264 123.653 112.349 123.598 112.445 123.584L143.012 118.676L138.964 99.4556C138.945 99.3663 138.963 99.2736 139.014 99.1976C139.064 99.1216 139.142 99.0687 139.231 99.0506C139.32 99.0302 139.412 99.0465 139.489 99.0956C139.565 99.1447 139.618 99.2225 139.636 99.3114L143.753 118.896C143.773 118.989 143.753 119.086 143.698 119.163C143.646 119.241 143.564 119.293 143.472 119.307L112.918 124.215L113.604 127.099C113.64 127.237 113.585 127.382 113.467 127.462C109.268 130.277 106.75 135.94 107.47 138.754C107.661 139.753 108.513 140.49 109.529 140.532C114.229 140.971 119.821 134.354 119.862 134.279C119.929 134.197 120.031 134.152 120.136 134.155C120.486 134.155 155.129 135.164 159.973 128.43C164.817 121.696 158.875 94.7946 158.813 94.4995C158.786 94.3768 158.827 94.2491 158.92 94.1645C159.012 94.0798 159.143 94.051 159.263 94.089C159.382 94.1269 159.473 94.2258 159.5 94.3484C159.753 95.4673 165.606 121.806 160.549 128.835C155.609 135.7 123.231 134.931 120.301 134.842C119.526 135.748 114.633 141.205 110.036 141.205Z" fill="#231F20"/>
<path d="M122.4 80.8941C122.347 80.8933 122.296 80.8791 122.249 80.853C122.164 80.8143 122.099 80.7427 122.068 80.6546C122.037 80.5666 122.043 80.4696 122.085 80.3862C127.066 70.0896 139.856 63.1634 139.986 63.0947C140.067 63.0491 140.164 63.0387 140.253 63.0659C140.343 63.0931 140.417 63.1556 140.459 63.2389C140.505 63.3215 140.516 63.4191 140.489 63.5096C140.462 63.6 140.399 63.6757 140.315 63.7194C140.192 63.788 127.601 70.5838 122.723 80.6951C122.661 80.8166 122.537 80.8935 122.4 80.8941Z" fill="#231F20"/>
<path d="M101.254 80.4067C101.204 80.4171 101.153 80.4171 101.103 80.4067C89.1505 74.9152 87.7028 62.8476 87.689 62.7309C87.669 62.5359 87.8099 62.3612 88.0047 62.3396C88.0976 62.328 88.1913 62.3542 88.2648 62.4122C88.3383 62.4703 88.3854 62.5554 88.3957 62.6485C88.3957 62.7652 89.8229 74.4416 101.432 79.6997C101.609 79.7807 101.688 79.9882 101.611 80.1665C101.557 80.3159 101.412 80.4131 101.254 80.4067Z" fill="#231F20"/>
<path d="M46.7957 95.9684C46.6425 95.9246 46.5369 95.7846 46.5369 95.6252C46.5369 95.4658 46.6425 95.3258 46.7957 95.282C51.9691 95.1241 54.4803 92.1999 54.5078 92.1724C54.5668 92.1003 54.6521 92.0546 54.7448 92.0456C54.8375 92.0366 54.93 92.0649 55.0018 92.1244C55.1528 92.2497 55.1743 92.4736 55.0498 92.6255C54.94 92.7559 52.3053 95.8243 46.8162 95.989L46.7957 95.9684Z" fill="#231F20"/>
<path d="M139.3 99.7025C139.137 99.7039 138.995 99.5929 138.957 99.4348C138.957 99.3112 135.725 86.6601 135.279 79.075C135.274 78.9821 135.305 78.8908 135.367 78.8212C135.429 78.7517 135.516 78.7096 135.609 78.7043C135.803 78.6925 135.971 78.8392 135.986 79.0338C136.432 86.5503 139.616 99.1328 139.643 99.2632C139.691 99.4525 139.578 99.6453 139.389 99.6956L139.3 99.7025Z" fill="#231F20"/>
<path d="M83.9977 101.961C83.9036 101.956 83.8155 101.913 83.7535 101.841C83.6915 101.77 83.6608 101.677 83.6684 101.583L85.37 74.9151C85.3752 74.8209 85.4182 74.7328 85.4893 74.6708C85.5603 74.6088 85.6534 74.5781 85.7473 74.5856C85.8409 74.589 85.929 74.6306 85.9911 74.7006C86.0533 74.7706 86.0842 74.8629 86.0767 74.9563L84.3476 101.624C84.3403 101.812 84.1857 101.961 83.9977 101.961Z" fill="#231F20"/>
<path d="M144.748 87.0446C144.618 87.0461 144.499 86.9744 144.439 86.8592L141.118 80.6813C141.081 80.5911 141.081 80.49 141.118 80.3998C141.15 80.3076 141.216 80.2313 141.303 80.187L151.595 75.3202C151.68 75.2779 151.778 75.2716 151.867 75.3026C151.956 75.3337 152.029 75.3994 152.069 75.4849C152.153 75.6613 152.079 75.8723 151.904 75.9586L141.928 80.6675L144.933 86.2414L155.04 83.1524C155.162 83.1157 155.295 83.1471 155.388 83.2349C155.481 83.3227 155.521 83.4535 155.491 83.5781C155.462 83.7027 155.368 83.8021 155.246 83.8389L144.851 87.0514L144.748 87.0446Z" fill="#231F20"/>
<ellipse cx="153.661" cy="160.274" rx="16.9406" ry="5.10025" fill="white"/>
<path fill-rule="evenodd" clip-rule="evenodd" d="M136.377 160.274C136.377 163.329 143.972 165.718 153.661 165.718C163.349 165.718 170.944 163.329 170.944 160.274C170.944 157.219 163.349 154.831 153.661 154.831C143.972 154.831 136.377 157.219 136.377 160.274ZM137.063 160.274C137.063 157.974 143.732 155.517 153.661 155.517C163.589 155.517 170.258 157.974 170.258 160.274C170.258 162.574 163.589 165.031 153.661 165.031C143.732 165.031 137.063 162.574 137.063 160.274Z" fill="#D1D3D4"/>
<path d="M140.892 145.708L140.487 145.783C139.262 145.966 138.148 146.594 137.358 147.547C136.454 148.929 136.414 150.705 137.255 152.126C139.053 155.366 143.43 156.245 146.806 156.581C147.284 156.659 147.773 156.621 148.233 156.471C148.698 156.312 149.014 155.878 149.022 155.387C148.963 154.986 148.705 154.642 148.336 154.474C147.983 154.31 147.605 154.203 147.218 154.158C145.118 153.815 142.909 153.561 140.988 152.593C139.869 152.023 138.305 150.726 139.121 149.325C139.407 148.882 139.818 148.533 140.302 148.323C142.23 147.403 144.062 148.103 145.962 148.666C146.1 148.717 146.248 148.738 146.394 148.728C146.771 148.625 147.009 148.256 146.95 147.87C146.888 147.039 146.058 146.497 145.276 146.188C143.879 145.658 142.37 145.492 140.892 145.708Z" fill="white"/>
<path fill-rule="evenodd" clip-rule="evenodd" d="M146.779 156.924C146.977 156.946 147.176 156.958 147.376 156.958C147.71 156.964 148.042 156.908 148.357 156.794C148.946 156.657 149.375 156.15 149.415 155.546C149.454 154.943 149.094 154.384 148.528 154.172C148.141 153.987 147.726 153.868 147.3 153.821L146.525 153.698C144.677 153.502 142.87 153.026 141.166 152.284C140.348 151.922 139.69 151.276 139.314 150.465C139.216 150.141 139.263 149.79 139.444 149.504C139.694 149.116 140.055 148.812 140.48 148.632C142.12 147.849 143.712 148.33 145.4 148.845L145.894 148.996C146.079 149.059 146.275 149.084 146.47 149.071C147.025 148.939 147.392 148.409 147.321 147.843C147.231 146.724 146.113 146.126 145.427 145.872C143.968 145.313 142.389 145.141 140.844 145.371L140.418 145.447C139.112 145.648 137.925 146.322 137.084 147.341C136.096 148.83 136.045 150.752 136.953 152.291C138.415 154.927 141.626 156.437 146.779 156.924ZM140.555 146.12L140.947 146.051V146.065C142.374 145.851 143.832 146.009 145.18 146.525C145.599 146.676 146.58 147.129 146.635 147.897C146.648 148.103 146.545 148.385 146.381 148.385C146.282 148.387 146.185 148.371 146.093 148.337L145.599 148.186C143.863 147.657 142.065 147.115 140.185 148.014C139.636 148.25 139.172 148.647 138.854 149.154C138.575 149.606 138.503 150.155 138.655 150.664C139.083 151.658 139.869 152.454 140.857 152.895C142.622 153.673 144.497 154.173 146.415 154.377L147.19 154.501C147.539 154.537 147.88 154.63 148.199 154.776C148.454 154.893 148.634 155.13 148.679 155.407C148.656 155.75 148.428 156.045 148.103 156.155C147.694 156.279 147.262 156.307 146.84 156.238C141.935 155.778 138.895 154.377 137.557 151.961C136.777 150.657 136.807 149.022 137.633 147.746C138.377 146.867 139.416 146.289 140.555 146.12Z" fill="#231F20"/>
<path d="M142.477 142.234C142.477 142.234 145.647 158.064 145.907 159.018C146.168 159.972 153.661 163.892 159.63 160.041L164.851 143.861L142.477 142.234Z" fill="white"/>
<path fill-rule="evenodd" clip-rule="evenodd" d="M148.549 161.05C150.221 161.698 151.998 162.037 153.791 162.052C155.919 162.089 158.01 161.502 159.808 160.363C159.876 160.323 159.927 160.259 159.952 160.185L165.174 144.005C165.209 143.905 165.194 143.795 165.135 143.707C165.075 143.619 164.978 143.564 164.872 143.559L142.497 141.898C142.39 141.886 142.285 141.927 142.213 142.008C142.142 142.088 142.115 142.199 142.14 142.303C142.271 142.955 145.317 158.153 145.571 159.107C145.736 159.718 147.232 160.542 148.549 161.05ZM146.237 158.929C146.01 158.084 143.417 145.186 142.902 142.612L164.412 144.177L159.362 159.821C155.753 162.073 151.815 161.366 149.757 160.741C147.568 160.075 146.333 159.155 146.237 158.929Z" fill="#231F20"/>
<ellipse cx="153.696" cy="142.697" rx="4.86" ry="11.2183" transform="rotate(-87.65 153.696 142.697)" fill="#231F20"/>
<path fill-rule="evenodd" clip-rule="evenodd" d="M153.475 147.918H154.566C156.956 147.971 159.336 147.592 161.592 146.799C163.863 145.948 165.181 144.644 165.236 143.202C165.359 140.278 160.378 137.8 153.901 137.532C147.424 137.265 142.257 139.324 142.134 142.248C142.01 145.173 146.991 147.657 153.475 147.918ZM142.813 142.283C142.909 139.949 147.403 138.164 152.844 138.164L153.901 138.185C159.781 138.425 164.687 140.697 164.584 143.148C164.536 144.28 163.369 145.372 161.38 146.134C158.853 147.019 156.176 147.395 153.503 147.239C147.616 146.998 142.717 144.726 142.813 142.283Z" fill="#231F20"/>
<path fill-rule="evenodd" clip-rule="evenodd" d="M90.5434 98.2541H126.847C127.028 98.2544 127.179 98.1129 127.19 97.9315V87.1887C127.19 86.9991 127.036 86.8455 126.847 86.8455H90.5434C90.3554 86.8491 90.204 87.0007 90.2003 87.1887V97.9109C90.2003 98.1004 90.3539 98.2541 90.5434 98.2541ZM126.504 97.5677H90.8864V87.5319H126.504V97.5677Z" fill="white"/>
<rect x="7.8302" y="174.236" width="186.333" height="7.18703" fill="white"/>
<path fill-rule="evenodd" clip-rule="evenodd" d="M7.83025 181.767H194.17C194.359 181.767 194.513 181.613 194.513 181.423V174.236C194.509 174.048 194.358 173.897 194.17 173.893H7.83025C7.64231 173.897 7.49083 174.048 7.48718 174.236V181.423C7.48718 181.613 7.64078 181.767 7.83025 181.767ZM193.827 181.08H8.17331V174.58H193.827V181.08Z" fill="#D1D3D4"/>
<path d="M164.845 107.116C164.657 107.109 164.508 106.954 164.508 106.766C164.508 105.977 165.009 87.3672 167.061 80.9216C169.112 74.4759 172.961 71.7919 173.119 71.6889C173.277 71.5828 173.49 71.6243 173.596 71.7816C173.702 71.9389 173.661 72.1525 173.503 72.2587C173.462 72.2587 169.709 74.8603 167.713 81.1275C165.716 87.3947 165.201 106.588 165.194 106.78C165.193 106.871 165.155 106.957 165.089 107.02C165.023 107.084 164.935 107.118 164.845 107.116Z" fill="white"/>
<defs>
<linearGradient id="paint0_linear_15:134" x1="0" y1="202" x2="202" y2="202" gradientUnits="userSpaceOnUse">
<stop stop-color="#5D0202" stop-opacity="0.01"/>
<stop offset="1" stop-color="#5D0202" stop-opacity="0.497569"/>
</linearGradient>
</defs>
</svg>
